<svg width="725" height="339" viewBox="0 0 725 339" fill="none" xmlns="http://www.w3.org/2000/svg">
<ellipse cx="362.5" cy="192" rx="362.5" ry="147" fill="url(#paint0_linear_2723_23517)"/>
<path d="M397.487 129.601L484.216 219.556V255.367H290.744L224.029 165.583V129.601L290.744 6.63281L484.216 6.64662L397.487 129.601Z" fill="#FFC5C7"/>
<path fill-rule="evenodd" clip-rule="evenodd" d="M294.221 0.976562L501.971 0.991391L411.648 129.042L496.716 217.274V261.023H294.743L225.216 167.455V128.166L294.221 0.976562ZM401.399 123.945L480.149 12.3023L300.954 12.2895L240.376 123.945H401.399ZM236.529 146.723V163.712L291.931 238.272V221.425L236.529 146.723ZM303.244 225.213V249.711H485.404V225.213H303.244ZM477.75 213.9H300.434L242.11 135.258H401.927L477.75 213.9Z" fill="#363636"/>
<path d="M352.044 178.807V192.236H343.588V214H341.5C337.526 213.808 333.951 214.5 330 214H328L328.238 192.236H296V177.447L300.658 167.1C306.392 165.414 312.215 164.043 318.099 162.996L310.782 178.807H328.246V160.413H343.619V178.807H352.044Z" fill="url(#paint1_linear_2723_23517)"/>
<path d="M354.457 158.946C359.907 158.661 365.365 158.5 370.792 158.454V214H369C367.463 213.892 366.522 214.123 365 214H364.327C361.045 213.754 357.732 214.261 354.457 214V158.946Z" fill="url(#paint2_linear_2723_23517)"/>
<path d="M401.485 159.444L401.5 214C396.119 214.461 390.723 214.008 385.289 214V158.614C390.792 158.768 396.204 159.044 401.485 159.444Z" fill="url(#paint3_linear_2723_23517)"/>
<path d="M436.336 214C436.703 213.821 437.614 214.134 438 214C440 214 440.5 214 442.5 214C443.353 213.862 442.662 214.192 443.5 214C444.5 214 446.5 214 446.5 214C448.5 214 449.728 213.963 451.679 214V192.566H460.134V179.145H451.679V168.022L436.305 164.141V179.145H418.88L425.613 164.54C419.551 165.808 413.584 167.498 407.757 169.598L404.091 177.746V192.566H436.336V214Z" fill="url(#paint4_linear_2723_23517)"/>
<path d="M338.853 118.142L316.67 166.092C310.205 167.437 304.094 169.351 298.936 170.896L322.665 118.142H338.853Z" fill="#E5002B"/>
<path d="M401.484 139.565V161.856C396.204 161.464 390.792 161.188 385.289 161.026V141.979C385.289 140.372 385.012 139.288 384.443 138.735C383.874 138.181 382.798 137.905 381.207 137.905H374.75C373.249 137.905 372.224 138.181 371.675 138.735C371.107 139.288 370.83 140.372 370.83 141.979V160.895C365.403 160.949 359.946 161.103 354.496 161.395V139.565C354.496 129.613 359.62 124.635 369.869 124.63H386.203C396.386 124.63 401.479 129.608 401.484 139.565Z" fill="#E5002B"/>
<path d="M407.68 169.845C413.507 167.746 419.474 166.055 425.536 164.787L448.089 116H431.893L407.68 169.845Z" fill="#E5002B"/>
<path d="M451.679 157.729H436.321V174.932H451.679V157.729Z" fill="#E5002B"/>
<path d="M343.588 157.729H328.23V174.932H343.588V157.729Z" fill="#E5002B"/>
<defs>
<linearGradient id="paint0_linear_2723_23517" x1="362.5" y1="45" x2="362.5" y2="339" gradientUnits="userSpaceOnUse">
<stop stop-color="#E5002B" stop-opacity="0.04"/>
<stop offset="1" stop-color="#E5002B" stop-opacity="0.07"/>
</linearGradient>
<linearGradient id="paint1_linear_2723_23517" x1="323.641" y1="176.025" x2="326.662" y2="250.516" gradientUnits="userSpaceOnUse">
<stop stop-color="#E5002B"/>
<stop offset="1" stop-color="#770321"/>
</linearGradient>
<linearGradient id="paint2_linear_2723_23517" x1="362.475" y1="177.978" x2="363.774" y2="241.462" gradientUnits="userSpaceOnUse">
<stop stop-color="#E5002B"/>
<stop offset="1" stop-color="#980027"/>
</linearGradient>
<linearGradient id="paint3_linear_2723_23517" x1="393.037" y1="169.314" x2="394.328" y2="232.798" gradientUnits="userSpaceOnUse">
<stop stop-color="#E5002B"/>
<stop offset="1" stop-color="#9C0027"/>
</linearGradient>
<linearGradient id="paint4_linear_2723_23517" x1="432.262" y1="173.826" x2="431.394" y2="239.762" gradientUnits="userSpaceOnUse">
<stop stop-color="#E5002B"/>
<stop offset="1" stop-color="#AF002C"/>
</linearGradient>
</defs>
</svg>
