<svg width="282" height="240" viewBox="0 0 282 240" fill="none" xmlns="http://www.w3.org/2000/svg">
<path d="M274.684 24.878C268.816 12.745 257.678 2.56304 244.338 0.642038C228.211 -1.68096 212.89 8.01204 200.508 18.603C188.126 29.194 176.272 41.515 160.68 46.241C132.789 54.694 103.917 36.231 74.772 36.041C65.232 36.0347 55.7919 37.9828 47.0337 41.7652C38.2756 45.5476 30.3852 51.084 23.849 58.033C-24.426 109.952 23.725 193.274 79.038 216.146C123.694 234.612 177.197 224.177 216.276 195.752C253.551 168.638 276.502 121.039 280.768 75.127C281.101 71.521 281.32 67.929 281.425 64.351C281.812 50.877 280.55 37.013 274.684 24.878Z" fill="#EFEFEF"/>
<path d="M65.928 6.17897C69.534 -1.45403 82.495 -1.85302 86.097 6.11198C86.939 8.02191 87.2496 10.1237 86.9962 12.1956C86.7427 14.2674 85.9345 16.2323 84.657 17.883C82.9051 19.9396 80.4855 21.3145 77.822 21.7668C75.1584 22.2191 72.4206 21.72 70.088 20.357C67.8408 18.8578 66.1926 16.6159 65.4321 14.0238C64.6715 11.4317 64.8471 8.65465 65.928 6.17897Z" fill="#EFEFEF"/>
<path d="M17.321 22.3771C16.5419 22.1729 15.746 22.0391 14.943 21.9771C8.443 21.4771 1.627 26.3291 0.287001 32.7431C-1.322 40.4431 4.01599 48.9751 11.68 50.7431C19.344 52.5111 27.965 47.0431 29.48 39.3301C30.951 31.8721 24.536 24.2601 17.321 22.3771Z" fill="#EFEFEF"/>
<path d="M220.973 142.562H55.7C52.0122 142.562 48.4754 141.097 45.8677 138.489C43.26 135.882 41.795 132.345 41.795 128.657C41.795 124.969 43.26 121.432 45.8677 118.825C48.4754 116.217 52.0122 114.752 55.7 114.752H125.623V117.136H55.7C52.6443 117.136 49.7137 118.35 47.553 120.511C45.3923 122.671 44.1785 125.602 44.1785 128.658C44.1785 131.713 45.3923 134.644 47.553 136.805C49.7137 138.965 52.6443 140.179 55.7 140.179H220.973C224.029 140.179 226.959 138.965 229.12 136.805C231.281 134.644 232.495 131.713 232.495 128.658C232.495 125.602 231.281 122.671 229.12 120.511C226.959 118.35 224.029 117.136 220.973 117.136H151.051V114.752H220.974C222.8 114.752 224.608 115.112 226.295 115.811C227.982 116.509 229.515 117.534 230.806 118.825C232.098 120.116 233.122 121.649 233.821 123.336C234.519 125.023 234.879 126.831 234.879 128.657C234.879 130.483 234.519 132.291 233.821 133.978C233.122 135.665 232.098 137.198 230.806 138.489C229.515 139.781 227.982 140.805 226.295 141.504C224.608 142.202 222.8 142.562 220.974 142.562H220.973Z" fill="#BC8F6F"/>
<path d="M53.149 140.179C48.508 140.179 44.361 135.452 42.449 128.062C44.362 120.672 48.51 115.945 53.149 115.945H222.03C226.671 115.945 230.819 120.672 232.73 128.062C230.817 135.452 226.669 140.179 222.03 140.179H53.149Z" fill="#EE4238"/>
<path d="M138.336 133.822C135.282 133.818 132.353 132.603 130.194 130.444C128.034 128.284 126.819 125.355 126.815 122.301V58.733C126.815 55.6774 128.029 52.7468 130.19 50.5861C132.35 48.4254 135.281 47.2115 138.336 47.2115C141.392 47.2115 144.323 48.4254 146.483 50.5861C148.644 52.7468 149.858 55.6774 149.858 58.733V122.3C149.855 125.355 148.64 128.284 146.48 130.444C144.32 132.604 141.391 133.819 138.336 133.822Z" fill="white"/>
<path d="M133.571 132.773C131.555 131.864 129.845 130.392 128.647 128.534C127.449 126.676 126.813 124.511 126.817 122.3V58.7341C126.813 56.5231 127.449 54.3581 128.647 52.4999C129.845 50.6418 131.555 49.1697 133.571 48.2611C135.587 49.1696 137.297 50.6417 138.495 52.4998C139.694 54.358 140.329 56.523 140.325 58.7341V122.301C140.329 124.512 139.693 126.677 138.495 128.535C137.297 130.393 135.587 131.865 133.571 132.773Z" fill="white"/>
<path d="M208.264 237.912H68.413C64.7265 237.908 61.1922 236.442 58.5854 233.835C55.9786 231.228 54.5122 227.694 54.508 224.007V141.37H56.892V224.007C56.8957 227.062 58.1107 229.99 60.2705 232.15C62.4303 234.309 65.3586 235.524 68.413 235.528H208.264C211.318 235.524 214.247 234.309 216.406 232.15C218.566 229.99 219.781 227.062 219.785 224.007V141.37H222.164V224.007C222.16 227.693 220.694 231.226 218.088 233.833C215.483 236.44 211.95 237.907 208.264 237.912Z" fill="#BF4653"/>
<path d="M55.031 143.018H219.365V228.977C219.365 231.212 218.477 233.355 216.897 234.936C215.316 236.516 213.173 237.404 210.938 237.404H69.358C65.5584 237.404 61.9144 235.895 59.2276 233.208C56.5408 230.522 55.0313 226.878 55.031 223.078V143.018Z" fill="white"/>
<path d="M55.7 143.357C51.8013 143.357 48.0623 141.808 45.3055 139.051C42.5488 136.295 41 132.556 41 128.657C41 124.758 42.5488 121.019 45.3055 118.263C48.0623 115.506 51.8013 113.957 55.7 113.957H124.432V117.93H55.7C52.855 117.93 50.1266 119.06 48.1149 121.072C46.1032 123.084 44.973 125.812 44.973 128.657C44.973 131.502 46.1032 134.23 48.1149 136.242C50.1266 138.254 52.855 139.384 55.7 139.384H220.973C223.818 139.384 226.546 138.254 228.558 136.242C230.57 134.23 231.7 131.502 231.7 128.657C231.7 125.812 230.57 123.084 228.558 121.072C226.546 119.06 223.818 117.93 220.973 117.93H152.242V113.957H220.973C224.872 113.957 228.611 115.506 231.367 118.263C234.124 121.019 235.673 124.758 235.673 128.657C235.673 132.556 234.124 136.295 231.367 139.051C228.611 141.808 224.872 143.357 220.973 143.357H55.7Z" fill="#BE353D" stroke="black" stroke-width="2"/>
<path d="M68.413 238.707C64.5157 238.702 60.7793 237.152 58.0235 234.397C55.2677 231.641 53.7175 227.904 53.713 224.007V142.562H57.686V224.007C57.6892 226.851 58.8204 229.578 60.8314 231.589C62.8424 233.6 65.569 234.731 68.413 234.734H208.259C211.103 234.731 213.83 233.6 215.841 231.589C217.852 229.578 218.983 226.851 218.986 224.007V142.562H222.959V224.007C222.955 227.904 221.405 231.641 218.649 234.397C215.893 237.153 212.156 238.703 208.259 238.707H68.413Z" fill="black" stroke="black" stroke-width="2"/>
<path d="M138.337 137C134.44 136.996 130.703 135.445 127.948 132.69C125.192 129.934 123.642 126.197 123.637 122.3V58.7341C123.637 54.8354 125.186 51.0964 127.943 48.3396C130.699 45.5828 134.438 44.0341 138.337 44.0341C142.236 44.0341 145.975 45.5828 148.732 48.3396C151.488 51.0964 153.037 54.8354 153.037 58.7341V122.3C153.033 126.197 151.483 129.934 148.727 132.69C145.971 135.446 142.234 136.996 138.337 137ZM138.337 48.0071C135.493 48.0102 132.766 49.1414 130.755 51.1524C128.744 53.1634 127.613 55.8901 127.61 58.7341V122.3C127.61 125.145 128.74 127.873 130.752 129.885C132.764 131.897 135.492 133.027 138.337 133.027C141.182 133.027 143.91 131.897 145.922 129.885C147.934 127.873 149.064 125.145 149.064 122.3V58.7341C149.061 55.8901 147.93 53.1634 145.919 51.1524C143.908 49.1414 141.181 48.0102 138.337 48.0071Z" fill="black" stroke="black" stroke-width="2"/>
<path d="M140.021 120.302H136.65V124.516H140.021V120.302Z" fill="black"/>
<path d="M76.816 139.685H56.59V143.056H76.816V139.685Z" fill="black"/>
<path d="M172.694 209.769C172.436 209.767 172.18 209.739 171.928 209.685C171.177 209.53 168.888 209.057 169.769 204.453C171.607 194.834 173.557 184.71 175.904 172.592C176.126 171.444 176.823 169.519 178.992 169.519C179.142 169.519 179.293 169.528 179.442 169.546C180.229 169.649 180.947 170.05 181.447 170.667C181.947 171.284 182.192 172.069 182.13 172.86L181.361 177.005C180.761 180.246 180.151 183.537 179.528 186.825C178.457 192.469 177.376 198.11 176.285 203.749L175.942 205.532C175.125 209.769 173.3 209.769 172.694 209.769Z" fill="black"/>
<path d="M100.637 209.716C99.8835 209.698 99.1628 209.405 98.6103 208.892C98.0578 208.38 97.7116 207.683 97.6369 206.933C95.9639 198.39 94.3019 189.695 92.6939 181.287L91.2769 173.88C91.2399 173.686 91.2219 173.472 91.2029 173.246C91.1949 173.146 91.186 173.04 91.175 172.939C91.0667 172.167 91.2629 171.384 91.722 170.754C92.1811 170.125 92.8672 169.699 93.6349 169.566C93.8382 169.532 94.0439 169.514 94.2499 169.514C94.9865 169.518 95.6956 169.794 96.2403 170.29C96.7849 170.786 97.1265 171.466 97.1989 172.199C98.5109 178.835 99.8059 185.591 101.058 192.125C101.582 194.858 102.106 197.589 102.631 200.317C102.75 200.935 102.88 201.551 103.01 202.167C103.263 203.367 103.525 204.6 103.689 205.813C103.968 207.869 102.977 209.385 101.165 209.675C100.99 209.702 100.814 209.716 100.637 209.716Z" fill="black"/>
<path d="M136.65 209.425C136.043 209.467 135.438 209.325 134.913 209.019C134.087 208.181 133.607 207.062 133.569 205.886C133.439 201.92 133.46 197.874 133.48 193.962C133.486 192.776 133.491 191.59 133.494 190.404H133.541V185.735C133.541 181.842 133.544 177.949 133.551 174.056C133.521 173.287 133.581 172.518 133.729 171.763C133.843 171.137 134.174 170.57 134.665 170.165C135.155 169.759 135.773 169.539 136.41 169.545C136.497 169.54 136.583 169.537 136.668 169.537C137.296 169.512 137.914 169.697 138.424 170.064C138.934 170.431 139.306 170.959 139.481 171.562C139.615 171.924 139.683 172.306 139.681 172.692C139.695 183.314 139.705 194.755 139.681 206.438C139.681 207.549 139.396 208.938 138.061 209.262C137.598 209.37 137.125 209.425 136.65 209.425Z" fill="black"/>
<path d="M215.472 164.234C238.376 164.234 256.944 145.408 256.944 122.186C256.944 98.9631 238.376 80.1376 215.472 80.1376C192.567 80.1376 174 98.9631 174 122.186C174 145.408 192.567 164.234 215.472 164.234Z" fill="white"/>
<path d="M217.166 170.004C207.752 170.004 198.55 167.213 190.723 161.983C182.896 156.753 176.796 149.32 173.194 140.623C169.591 131.926 168.649 122.357 170.485 113.124C172.322 103.892 176.855 95.4109 183.511 88.7546C190.167 82.0983 198.648 77.5653 207.88 75.7289C217.113 73.8924 226.683 74.835 235.379 78.4373C244.076 82.0397 251.51 88.14 256.739 95.967C261.969 103.794 264.761 112.996 264.761 122.409C264.746 135.028 259.727 147.126 250.804 156.048C241.882 164.971 229.784 169.99 217.166 170.004ZM217.166 80.9954C208.975 80.9954 200.968 83.4242 194.157 87.9749C187.347 92.5255 182.039 98.9935 178.904 106.561C175.769 114.128 174.949 122.455 176.547 130.489C178.145 138.522 182.09 145.902 187.881 151.693C193.673 157.485 201.053 161.43 209.086 163.028C217.12 164.626 225.447 163.805 233.014 160.671C240.581 157.536 247.049 152.228 251.6 145.418C256.151 138.607 258.58 130.6 258.58 122.409C258.567 111.429 254.2 100.903 246.436 93.139C238.672 85.375 228.145 81.0078 217.166 80.9954Z" fill="black"/>
<path d="M234.199 119.131H200.131C198.474 119.131 197.131 120.474 197.131 122.131V122.687C197.131 124.344 198.474 125.687 200.131 125.687H234.199C235.855 125.687 237.199 124.344 237.199 122.687V122.131C237.199 120.474 235.855 119.131 234.199 119.131Z" fill="black" stroke="black" stroke-width="1.5"/>
</svg>
