<svg width="173" height="163" viewBox="0 0 173 163" fill="none" xmlns="http://www.w3.org/2000/svg">
<g id="Group 13261">
<g id="g6">
<path id="path8" d="M86.6923 1.15554C84.5447 1.42886 81.9286 1.85837 80.8353 2.09265C78.883 2.48311 75.5641 3.18595 70.2928 4.27925C66.7786 4.98208 59.2427 7.28582 56.2361 8.5353C54.9476 9.0429 53.4638 9.6286 52.9172 9.78478C49.9496 10.7219 40.7347 15.3684 37.1034 17.7502C31.2464 21.6549 30.3874 22.2796 27.9275 24.3881C16.7602 33.9545 9.10713 45.5903 5.39772 58.5927C3.67968 64.6449 3.28922 67.7296 3.32827 75.5779C3.32827 83.5824 3.71873 86.5109 5.04631 88.268C7.38909 91.3136 9.18522 90.1422 9.18522 85.5738C9.18522 77.0617 11.0594 66.6753 14.1051 58.3975C19.7277 43.0913 30.9731 30.4403 45.5764 22.9434C51.6286 19.8587 53.4248 19.195 60.336 17.3988C62.5226 16.8131 63.9282 16.8912 63.772 17.5941C63.694 17.9845 60.7264 19.5073 56.158 21.4596C43.546 26.9261 39.7195 29.308 33.2768 35.6335C24.2962 44.4189 19.142 53.0091 15.7841 64.8011C14.1832 70.3847 13.7146 76.7883 13.9879 89.0489C14.3003 102.012 14.7298 106.073 16.2526 110.72C17.5802 114.741 20.9382 121.809 22.9295 124.737C25.2723 128.095 33.6673 136.451 37.1424 138.833C37.611 139.145 39.3681 140.395 41.0471 141.566C47.4507 146.018 53.5809 149.18 58.5789 150.508C62.2492 151.523 69.0043 152.89 70.2928 152.89C71.5423 152.89 72.3232 153.866 71.6594 154.647C71.1128 155.311 67.5986 155.428 64.6311 154.881C55.9628 153.28 49.5982 151.211 42.5699 147.775C34.7996 143.948 26.3266 136.529 19.4154 127.431C14.5346 121.028 13.2851 119.896 12.1527 120.872C9.96615 122.668 12.1137 129.657 16.9554 136.49C21.2896 142.581 30.1531 150.508 36.3224 153.788C49.2078 160.66 65.1387 163.471 80.8353 161.675C93.3301 160.191 104.302 156.872 115.587 151.055C118.047 149.805 119.023 149.18 122.927 146.564C123.552 146.135 124.802 145.276 125.778 144.612C128.472 142.777 136.125 135.28 138.702 131.922C148.503 119.076 153.774 107.596 155.648 95.1011C156.702 88.1508 156.039 71.439 154.399 62.4974C152.642 53.1653 151.08 48.9092 146.902 42.1152C144.09 37.5858 143.544 36.883 139.561 32.9002C130.776 24.1148 116.992 16.2665 108.324 15.056C100.749 14.0018 99.8509 13.8066 99.0309 13.0647C97.1957 11.3466 98.4062 10.2143 101.803 10.4876C110.393 11.1905 117.266 13.377 126.129 18.2969C135.852 23.6462 143.427 29.5032 148.034 35.243C154.867 43.7161 160.099 58.0851 161.505 72.0637C162.208 78.9749 161.739 94.2811 160.724 99.201C158.538 109.587 157.093 114.039 153.618 121.028C147.097 134.108 137.453 143.87 120.545 154.413C118.359 155.818 117.539 156.872 117.89 157.849C118.086 158.356 118.554 158.434 120.194 158.239C124.138 157.81 129.522 154.926 136.008 150.196C140.351 147.028 140.368 146.869 143.036 144.612C145.161 142.814 154.789 133.523 157.64 129.852C163.379 122.395 166.503 116.499 168.846 108.689C171.813 98.6153 173.063 87.448 172.672 74.2113C172.516 69.9162 172.243 65.6992 172.048 64.8402C171.852 63.9811 171.345 61.5212 170.876 59.3737C168.26 47.0741 161.974 33.9545 154.242 24.6224C143.973 12.2447 130.893 5.21636 111.096 1.50695C106.957 0.765072 91.6512 0.530794 86.6923 1.15554ZM104.693 32.9393C105.474 33.4469 105.981 34.7745 106.45 37.5467C106.684 39.0305 107.231 41.1 107.582 42.1933L108.246 44.1456L116.407 46.9179C124.841 49.7683 126.012 50.2368 132.025 53.1653C136.398 55.2738 137.453 56.289 137.062 57.968C136.75 59.3737 134.915 60.5451 133.626 60.1936C133.196 60.0765 125.934 60.1546 117.578 60.3889C103.365 60.7403 86.8485 61.7555 80.4448 62.6926C78.9611 62.9269 75.6812 63.3564 73.2213 63.6688C68.4967 64.2545 63.8892 64.8792 54.479 66.2068C51.3553 66.6363 47.4897 67.1829 45.8888 67.3782C44.2879 67.6125 41.3204 68.042 39.329 68.3934C36.0101 68.94 35.5806 68.94 34.7215 68.3543C33.6673 67.6905 33.7063 67.6905 34.0187 66.8315C34.7606 64.8792 48.8563 56.8747 58.7741 52.7358C61.234 51.6815 63.4987 50.7054 63.772 50.4711C64.0454 50.2759 65.9586 47.5817 67.9891 44.497C70.5271 40.6705 72.0108 38.8353 72.5575 38.7181C73.026 38.64 76.5793 37.8982 80.4448 37.1172C84.3104 36.3363 88.0198 35.6335 88.6446 35.5163C89.3084 35.3992 92.1197 34.8135 94.892 34.1888C101.764 32.666 103.912 32.3926 104.693 32.9393ZM79.0001 66.7144C79.0782 67.1048 78.7268 68.081 78.2192 68.8619C77.6726 69.6429 76.7354 71.0876 76.1107 72.0637C74.4708 74.5627 72.167 76.7493 71.1909 76.7493C70.0585 76.7493 68.9262 75.656 68.9262 74.5237C68.9262 72.0637 71.6204 68.901 75.3688 67.0268C77.9068 65.6992 78.8049 65.6601 79.0001 66.7144ZM127.808 72.5323C128.472 73.1961 128.394 74.7189 127.496 77.2959C126.715 79.4435 126.715 79.5997 127.34 80.3025C127.691 80.732 128.394 81.0444 128.862 81.0444C130.034 81.0444 131.596 82.3329 131.205 82.9577C130.698 83.7776 127.808 84.949 126.207 84.949C125.348 84.949 124.099 84.6757 123.357 84.3243C122.146 83.7386 121.99 83.7386 120.897 84.5195C118.359 86.3547 114.845 87.7213 112.97 87.6042C111.994 87.5651 110.94 87.7213 110.628 87.9556C108.168 89.947 104.732 90.806 98.8357 90.845C96.6491 90.845 94.072 91.0012 93.0568 91.1574C89.8941 91.665 89.1912 90.4155 91.0264 87.5261C91.8854 86.1985 96.8834 81.591 100.554 78.7407C101.1 78.3112 101.452 77.9207 101.335 77.8036C101.218 77.6864 99.929 77.8036 98.4062 77.9988C96.9224 78.194 95.1263 78.2721 94.3844 78.1159C92.8616 77.8426 91.5731 76.6712 91.5731 75.617C91.5731 74.2113 92.6273 73.6256 95.2044 73.6256C96.532 73.6256 98.8357 73.3523 100.358 73.0399C101.842 72.7275 104.146 72.4542 105.395 72.4542C108.207 72.4542 109.144 73.118 109.144 75.0703C109.144 76.2807 108.597 76.9836 104.419 81.2396C101.842 83.8948 99.8509 86.1204 100.046 86.2376C100.71 86.589 106.645 86.8623 107.933 86.589L109.3 86.2766L109.183 84.1291C109.105 82.2548 109.261 81.7472 110.432 80.0682C112.15 77.5302 115.743 74.6408 118.515 73.5475C119.686 73.0789 121.99 72.5713 123.591 72.4542C125.192 72.298 126.715 72.1809 126.949 72.1418C127.144 72.1028 127.535 72.259 127.808 72.5323ZM57.2903 73.2742C59.6722 74.2113 61.7416 76.0074 62.5226 77.8036C62.8349 78.5064 63.0692 80.1073 63.0692 81.3568C63.0692 85.8861 59.5941 90.1422 54.1276 92.2898C49.9887 93.9297 48.4659 94.164 47.2164 93.344C46.6697 92.9926 46.1621 92.7583 46.1231 92.8364C46.045 92.9145 45.6545 93.9297 45.186 95.1011C39.5633 109.509 38.0014 112.203 36.0491 110.446C35.3463 109.822 35.2682 109.431 35.4634 106.815C35.8929 100.997 39.8757 89.6736 43.9755 82.6843C45.0298 80.9273 45.8888 79.4045 45.8888 79.3654C45.8888 79.2873 45.3031 79.3264 44.5612 79.4045C43.507 79.5216 43.1165 79.4045 42.7651 78.7407C42.1794 77.6474 42.4918 76.7493 43.9755 75.3436C46.7088 72.7275 53.2686 71.6733 57.2903 73.2742ZM90.4407 77.9597C91.4559 78.9749 91.2216 80.1854 89.5036 82.5672C88.137 84.4414 87.5903 85.0662 83.4905 89.2832L80.6791 92.1726L85.0523 92.2117C87.4732 92.2117 91.7292 92.3288 94.5015 92.4069C98.0938 92.524 100.124 92.4069 101.452 92.0164C104.888 91.0403 104.849 93.1488 101.413 94.8278C98.7185 96.1944 95.7901 96.6239 87.4732 96.8191C82.5924 96.9753 79.1173 97.2486 77.3211 97.6782C71.5813 99.0448 70.488 98.8495 70.488 96.4677C70.488 94.8278 72.0889 92.8754 78.063 87.2918C83.5295 82.2158 83.92 81.7082 82.0848 82.2548C80.3277 82.7624 76.5793 82.6843 75.3688 82.1377C74.8222 81.9034 74.2755 81.2396 74.1193 80.732C73.6898 79.014 74.9393 78.4673 79.9372 78.1159C82.3581 77.9597 85.1304 77.6864 86.1066 77.5302C88.996 77.0617 89.5817 77.1007 90.4407 77.9597ZM71.6594 79.7168C72.5575 82.0596 71.7766 85.3785 68.77 91.7041C67.5595 94.2421 66.5834 96.5849 66.5834 96.9753C66.5834 98.7715 64.4749 99.1619 63.0302 97.6001C62.2102 96.741 62.0931 96.2334 62.0931 93.8126C62.0931 91.2745 62.2492 90.7279 63.6159 88.268C65.2558 85.3005 69.1995 79.4825 69.9023 79.014C70.6442 78.4673 71.308 78.7016 71.6594 79.7168ZM116.563 95.1011C116.563 95.7258 116.25 96.8582 115.899 97.6391C115.548 98.381 115.352 99.1229 115.508 99.24C115.626 99.3962 117.227 99.1229 119.023 98.6934C123.279 97.6001 126.52 97.2096 126.871 97.7562C127.379 98.5762 124.411 99.9819 114.415 103.769C113.01 104.316 112.814 104.589 112.072 106.854C111.604 108.221 110.94 110.056 110.55 110.915C110.159 111.774 109.417 113.843 108.91 115.522C106.84 122.004 105.864 123.293 104.849 120.872C104.146 119.193 104.576 114.156 105.747 109.548C106.762 105.644 106.684 105.253 104.927 105.253C103.716 105.253 102.037 103.535 102.389 102.637C102.897 101.153 103.365 100.958 106.176 100.958H109.027L110.862 98.0686C113.127 94.4373 114.728 92.9926 115.821 93.5392C116.289 93.8126 116.563 94.3592 116.563 95.1011ZM81.6943 100.021C81.8115 100.372 81.4601 102.52 80.8744 104.824C79.6249 109.783 79.5858 110.524 80.562 110.134C80.9134 109.978 81.6553 109.743 82.1238 109.626C83.5686 109.314 83.1 111.071 81.421 112.164C79.0392 113.765 78.7659 114.156 78.4925 116.069C78.3363 117.084 77.9849 118.919 77.7116 120.091C77.4383 121.262 77.0869 122.707 76.9697 123.293C76.5402 125.128 74.9003 126.729 73.3775 126.729C71.1518 126.729 70.3709 124.191 71.2689 119.7C71.4251 118.724 71.5423 117.904 71.4642 117.826C71.4251 117.787 69.629 118.295 67.5205 119.037L63.6549 120.325L62.4445 125.206C61.0778 130.672 60.4141 132.156 58.9303 133.327C57.6027 134.382 56.3532 134.382 55.4161 133.327C54.479 132.273 54.479 127.822 55.4161 125.05C56.4704 121.965 56.3142 121.418 54.4009 121.145C52.2924 120.872 50.7306 119.31 51.3553 118.138C51.902 117.084 53.4638 116.342 56.3532 115.757C58.4617 115.327 58.8522 115.093 59.0474 114.234C59.3598 112.906 63.1473 105.644 64.6311 103.496C66.8567 100.255 68.5748 99.2791 69.1214 100.919C69.4338 101.895 68.1062 107.362 66.8177 110.681C66.232 112.086 65.8025 113.375 65.8025 113.57C65.8025 113.96 67.6767 113.687 70.9566 112.789C73.1432 112.203 73.1432 112.203 74.0412 109.783C75.486 105.917 77.7116 101.622 78.883 100.45C80.0934 99.2791 81.3039 99.0838 81.6943 100.021ZM101.413 104.199C101.53 104.706 101.335 107.049 101.061 109.392C100.749 111.735 100.593 114.741 100.71 116.069C100.866 118.021 100.788 118.49 100.28 118.685C99.2652 119.076 97.3519 117.67 96.3758 115.835C95.8682 114.859 95.3996 114.039 95.3215 113.96C95.2434 113.843 94.3063 114.702 93.2911 115.796C89.9722 119.349 86.2237 120.598 84.1543 118.88C83.3343 118.177 83.1781 117.748 83.2171 115.835C83.2171 114.546 83.6076 112.633 84.1543 111.149L85.0914 108.65L84.1933 107.947C83.1 107.049 83.5295 106.268 85.3647 105.878C87.1608 105.526 88.4103 105.995 89.035 107.245C89.6988 108.494 89.816 111.383 89.2303 112.828C88.7227 114.234 89.1522 114.117 91.6902 112.125C94.072 110.29 96.1415 107.986 97.7424 105.448C98.8747 103.652 99.2652 103.301 100.398 103.301C100.983 103.301 101.296 103.574 101.413 104.199Z" fill="white"/>
<path id="path10" d="M119.882 77.4911C118.359 78.1549 115.392 81.0443 115.392 81.8253C115.392 82.45 116.094 82.2938 118.75 81.0443C120.702 80.1463 121.288 79.6777 121.483 78.8187C121.639 78.233 121.912 77.4911 122.147 77.2178C122.693 76.515 121.756 76.6321 119.882 77.4911Z" fill="white"/>
<path id="path12" d="M50.3798 78.6236C50.2627 78.7407 50.1846 79.3654 50.1846 79.9902C50.1846 80.6149 49.4037 83.4653 48.4275 86.3547C46.4361 92.2117 46.3971 92.5241 47.3732 92.0165C47.7247 91.8212 49.1694 91.1965 50.536 90.5718C53.6207 89.1661 56.5882 86.3938 57.1739 84.3634C57.4863 83.1529 57.4472 82.6453 56.8225 81.474C56.432 80.654 55.612 79.795 54.9873 79.4826C53.7378 78.8969 50.6922 78.3502 50.3798 78.6236Z" fill="white"/>
<path id="path14" d="M2.23502 97.7562C0.907444 99.1618 0.51698 101.466 0.985537 104.824C1.72742 110.056 2.93786 112.36 5.6711 113.726C7.77961 114.819 9.22432 114.858 10.1614 113.843C10.7862 113.179 10.7862 112.75 10.3957 109.08C10.1614 106.854 9.84906 104.082 9.73192 102.91C9.30241 98.8104 8.01388 97.0924 5.12445 96.78C3.52355 96.5848 3.25023 96.6629 2.23502 97.7562Z" fill="white"/>
</g>
<g id="text3786">
<path id="path3791" d="M148.534 148.013V144.815H147.309V144.387H150.257V144.815H149.027V148.013H148.534Z" fill="white"/>
<path id="path3793" d="M150.75 148.013V144.387H151.491L152.371 146.954C152.452 147.194 152.512 147.372 152.549 147.491C152.591 147.359 152.657 147.166 152.747 146.91L153.637 144.387H154.3V148.013H153.825V144.978L152.744 148.013H152.3L151.224 144.926V148.013H150.75Z" fill="white"/>
</g>
</g>
</svg>
