<svg xmlns="http://www.w3.org/2000/svg" width="99" height="92" viewBox="0 0 99 92" fill="none">
  <path d="M49.4566 0.355169C48.2366 0.510449 46.7503 0.754461 46.1292 0.887558C45.02 1.10939 43.1345 1.50868 40.1398 2.1298C38.1434 2.52909 33.8621 3.83788 32.154 4.54773C31.4219 4.83611 30.579 5.16885 30.2684 5.25758C28.5825 5.78997 23.3474 8.42973 21.2844 9.78289C17.9569 12.0012 17.4689 12.3561 16.0714 13.554C9.7271 18.9888 5.37926 25.5993 3.27189 32.9862C2.29584 36.4245 2.07401 38.177 2.09619 42.6357C2.09619 47.1832 2.31802 48.8469 3.07224 49.8451C4.40321 51.5754 5.42362 50.9099 5.42362 48.3145C5.42362 43.4787 6.4884 37.578 8.21867 32.8752C11.413 24.1796 17.8017 16.9923 26.0981 12.7332C29.5364 10.9808 30.5568 10.6037 34.4832 9.58324C35.7254 9.2505 36.524 9.29486 36.4353 9.69416C36.3909 9.91598 34.705 10.7811 32.1096 11.8903C24.9445 14.9959 22.7706 16.349 19.1105 19.9426C14.0084 24.9338 11.0803 29.814 9.17253 36.5132C8.26303 39.6854 7.99684 43.3234 8.15212 50.2888C8.32958 57.6535 8.57359 59.9605 9.43872 62.6003C10.1929 64.8851 12.1007 68.9002 13.232 70.5639C14.563 72.4717 19.3323 77.2188 21.3066 78.572C21.5728 78.7494 22.571 79.4593 23.5248 80.1248C27.1628 82.6536 30.6455 84.4504 33.485 85.2046C35.5701 85.7814 39.4078 86.5578 40.1398 86.5578C40.8497 86.5578 41.2933 87.1124 40.9162 87.556C40.6057 87.9331 38.6092 87.9997 36.9233 87.6891C31.9987 86.7796 28.3829 85.6039 24.39 83.6518C19.9756 81.4779 15.1619 77.2632 11.2355 72.0946C8.46268 68.4566 7.75283 67.8133 7.10952 68.3678C5.86728 69.3882 7.08734 73.359 9.83801 77.241C12.3003 80.7015 17.3358 85.2046 20.8407 87.068C28.1611 90.9722 37.2117 92.5693 46.1292 91.5489C53.2277 90.706 59.4611 88.8204 65.8719 85.5152C67.2695 84.8053 67.824 84.4504 70.0423 82.9642C70.3972 82.7201 71.1071 82.2321 71.6617 81.855C73.1923 80.8124 77.5401 76.5533 79.0042 74.6456C84.5721 67.3474 87.5668 60.8257 88.6316 53.7271C89.2305 49.7786 88.8534 40.2843 87.9217 35.2045C86.9235 29.9027 86.0362 27.4848 83.6626 23.625C82.0654 21.0518 81.7549 20.6525 79.4922 18.3898C74.5011 13.3987 66.6705 8.93994 61.7459 8.25227C57.4424 7.65333 56.9322 7.54242 56.4664 7.12094C55.4238 6.1449 56.1115 5.50159 58.0414 5.65687C62.9216 6.05617 66.8258 7.29841 71.8613 10.0934C77.3848 13.1325 81.6883 16.4599 84.3059 19.7208C88.1879 24.5345 91.1604 32.6978 91.959 40.6393C92.3583 44.5656 92.0921 53.2613 91.5153 56.0563C90.2731 61.957 89.4523 64.4858 87.478 68.4566C83.7735 75.8878 78.2943 81.4335 68.6892 87.4229C67.4469 88.2215 66.9811 88.8204 67.1807 89.375C67.2916 89.6634 67.5578 89.7078 68.4895 89.5968C70.73 89.3528 73.7888 87.7148 77.4736 85.0272C79.9409 83.2275 79.9508 83.1376 81.4665 81.855C82.6735 80.8336 88.1435 75.5551 89.7629 73.4699C93.0238 69.233 94.7984 65.8834 96.1294 61.4468C97.8153 55.7236 98.5251 49.3793 98.3033 41.8593C98.2146 39.4192 98.0593 37.0234 97.9484 36.5354C97.8375 36.0474 97.5491 34.6499 97.2829 33.4298C95.7966 26.4422 92.2252 18.9888 87.833 13.6871C81.9989 6.6551 74.5676 2.66219 63.3209 0.554815C60.9695 0.133341 52.2738 0.000243434 49.4566 0.355169ZM59.6829 18.412C60.1266 18.7004 60.415 19.4546 60.6811 21.0296C60.8142 21.8725 61.1248 23.0482 61.3244 23.6694L61.7016 24.7785L66.3378 26.3535C71.1293 27.9728 71.7948 28.239 75.2109 29.9027C77.6954 31.1006 78.2943 31.6774 78.0725 32.6312C77.8951 33.4298 76.8525 34.0953 76.1204 33.8957C75.8764 33.8291 71.7504 33.8735 67.0033 34.0066C58.9287 34.2062 49.5453 34.783 45.9074 35.3154C45.0644 35.4485 43.201 35.6925 41.8035 35.8699C39.1194 36.2027 36.5018 36.5576 31.1557 37.3118C29.3811 37.5558 27.185 37.8664 26.2755 37.9773C25.366 38.1104 23.6801 38.3544 22.5488 38.5541C20.6633 38.8646 20.4192 38.8646 19.9312 38.5319C19.3323 38.1548 19.3545 38.1548 19.5319 37.6667C19.9534 36.5576 27.9614 32.0101 33.5959 29.6587C34.9934 29.0598 36.28 28.5052 36.4353 28.3721C36.5906 28.2612 37.6775 26.7306 38.831 24.9781C40.2729 22.8042 41.1159 21.7616 41.4264 21.6951C41.6926 21.6507 43.7113 21.2292 45.9074 20.7856C48.1035 20.3419 50.2108 19.9426 50.5658 19.8761C50.9429 19.8095 52.54 19.4768 54.115 19.1219C58.0192 18.2567 59.2393 18.1015 59.6829 18.412ZM45.0866 37.6002C45.131 37.822 44.9313 38.3766 44.6429 38.8203C44.3324 39.2639 43.8 40.0847 43.4451 40.6393C42.5134 42.059 41.2046 43.3012 40.65 43.3012C40.0067 43.3012 39.3634 42.6801 39.3634 42.0368C39.3634 40.6393 40.894 38.8424 43.0236 37.7777C44.4655 37.0234 44.9757 37.0013 45.0866 37.6002ZM72.8152 40.9054C73.1923 41.2826 73.1479 42.1477 72.6377 43.6118C72.1941 44.8318 72.1941 44.9205 72.549 45.3198C72.7486 45.5638 73.1479 45.7413 73.4141 45.7413C74.0796 45.7413 74.9669 46.4733 74.7451 46.8283C74.4567 47.2941 72.8152 47.9596 71.9057 47.9596C71.4177 47.9596 70.7078 47.8043 70.2863 47.6047C69.5987 47.2719 69.5099 47.2719 68.8888 47.7156C67.4469 48.7582 65.4505 49.5346 64.3857 49.468C63.8311 49.4458 63.2322 49.5346 63.0547 49.6677C61.6572 50.799 59.7051 51.287 56.3555 51.3092C55.1132 51.3092 53.6492 51.3979 53.0724 51.4867C51.2756 51.7751 50.8763 51.0652 51.9189 49.4237C52.4069 48.6694 55.2463 46.0519 57.3315 44.4325C57.6421 44.1885 57.8417 43.9667 57.7752 43.9001C57.7086 43.8336 56.9766 43.9001 56.1115 44.011C55.2685 44.122 54.2481 44.1663 53.8266 44.0776C52.9615 43.9223 52.2295 43.2568 52.2295 42.6579C52.2295 41.8593 52.8284 41.5266 54.2925 41.5266C55.0467 41.5266 56.3555 41.3713 57.2206 41.1938C58.0636 41.0164 59.3724 40.8611 60.0822 40.8611C61.6794 40.8611 62.2118 41.2382 62.2118 42.3473C62.2118 43.035 61.9012 43.4343 59.5276 45.8522C58.0636 47.3607 56.9322 48.6251 57.0432 48.6916C57.4203 48.8913 60.7921 49.0466 61.5241 48.8913L62.3005 48.7138L62.2339 47.4938C62.1896 46.429 62.2783 46.1406 62.9438 45.1867C63.9198 43.7449 65.9607 42.1033 67.5357 41.4822C68.2011 41.216 69.5099 40.9276 70.4194 40.8611C71.3289 40.7723 72.1941 40.7058 72.3272 40.6836C72.4381 40.6614 72.6599 40.7502 72.8152 40.9054ZM32.7529 41.3269C34.1061 41.8593 35.2818 42.8797 35.7254 43.9001C35.9029 44.2994 36.036 45.2089 36.036 45.9188C36.036 48.492 34.0617 50.9099 30.9561 52.13C28.6047 53.0617 27.7396 53.1948 27.0297 52.7289C26.7192 52.5293 26.4308 52.3962 26.4086 52.4405C26.3643 52.4849 26.1424 53.0617 25.8762 53.7271C22.6819 61.9126 21.7946 63.4432 20.6854 62.445C20.2861 62.0901 20.2418 61.8683 20.3527 60.382C20.5967 57.0768 22.8594 50.6437 25.1886 46.673C25.7875 45.6748 26.2755 44.8096 26.2755 44.7874C26.2755 44.7431 25.9428 44.7653 25.5213 44.8096C24.9224 44.8762 24.7005 44.8096 24.5009 44.4325C24.1681 43.8114 24.3456 43.3012 25.1886 42.5026C26.7414 41.0164 30.4681 40.4174 32.7529 41.3269ZM51.5862 43.9889C52.1629 44.5656 52.0298 45.2533 51.0538 46.6064C50.2774 47.6712 49.9668 48.0261 47.6376 50.4219L46.0405 52.0634L48.5249 52.0856C49.9003 52.0856 52.3182 52.1522 53.8932 52.1965C55.934 52.2631 57.0875 52.1965 57.8417 51.9747C59.7938 51.4201 59.7716 52.618 57.8196 53.5719C56.2889 54.3483 54.6252 54.5923 49.9003 54.7032C47.1274 54.7919 45.1531 54.9472 44.1327 55.1912C40.8718 55.9676 40.2507 55.8567 40.2507 54.5035C40.2507 53.5719 41.1602 52.4627 44.5542 49.2906C47.6598 46.4068 47.8816 46.1184 46.839 46.429C45.8408 46.7174 43.7113 46.673 43.0236 46.3624C42.713 46.2293 42.4025 45.8522 42.3137 45.5638C42.0697 44.5878 42.7796 44.2772 45.619 44.0776C46.9943 43.9889 48.5693 43.8336 49.1239 43.7449C50.7654 43.4787 51.0981 43.5008 51.5862 43.9889ZM40.9162 44.9871C41.4264 46.3181 40.9828 48.2036 39.2747 51.7972C38.587 53.2391 38.0324 54.5701 38.0324 54.7919C38.0324 55.8123 36.8346 56.0342 36.0138 55.1468C35.548 54.6588 35.4814 54.3704 35.4814 52.9951C35.4814 51.5532 35.5701 51.2427 36.3465 49.8451C37.2782 48.1592 39.5187 44.854 39.918 44.5878C40.3395 44.2772 40.7166 44.4103 40.9162 44.9871ZM66.4265 53.7271C66.4265 54.0821 66.249 54.7254 66.0494 55.169C65.8498 55.5905 65.7388 56.012 65.8276 56.0785C65.8941 56.1673 66.8036 56.012 67.824 55.768C70.242 55.1468 72.0831 54.925 72.2828 55.2356C72.5712 55.7014 70.8853 56.5 65.2065 58.6517C64.4079 58.9623 64.297 59.1176 63.8755 60.4042C63.6093 61.1806 63.2322 62.2232 63.0103 62.7112C62.7885 63.1992 62.367 64.3749 62.0787 65.3288C60.903 69.0111 60.3484 69.7432 59.7716 68.3678C59.3724 67.414 59.6164 64.5524 60.2819 61.9348C60.8586 59.7165 60.8142 59.4947 59.816 59.4947C59.1283 59.4947 58.1745 58.5186 58.3741 58.0084C58.6625 57.1655 58.9287 57.0546 60.5259 57.0546H62.1452L63.1878 55.413C64.4744 53.35 65.3839 52.5293 66.005 52.8398C66.2712 52.9951 66.4265 53.3057 66.4265 53.7271ZM46.6172 56.5222C46.6838 56.7218 46.4841 57.9419 46.1514 59.2507C45.4415 62.0679 45.4193 62.4894 45.9739 62.2675C46.1736 62.1788 46.595 62.0457 46.8612 61.9792C47.682 61.8017 47.4158 62.7999 46.4619 63.4211C45.1088 64.3306 44.9535 64.5524 44.7982 65.6393C44.7095 66.2161 44.5098 67.2587 44.3546 67.9242C44.1993 68.5897 43.9996 69.4104 43.9331 69.7432C43.6891 70.7858 42.7574 71.6953 41.8923 71.6953C40.6278 71.6953 40.1842 70.2534 40.6944 67.7023C40.7831 67.1478 40.8497 66.6819 40.8053 66.6376C40.7831 66.6154 39.7627 66.9038 38.5648 67.3252L36.3687 68.0573L35.6811 70.8301C34.9047 73.9357 34.5275 74.7787 33.6846 75.4442C32.9304 76.0431 32.2205 76.0431 31.6881 75.4442C31.1557 74.8452 31.1557 72.3164 31.6881 70.7414C32.2871 68.989 32.1983 68.6784 31.1114 68.5231C29.9135 68.3678 29.0262 67.4805 29.3811 66.815C29.6917 66.2161 30.579 65.7946 32.2205 65.4619C33.4184 65.2179 33.6402 65.0848 33.7511 64.5967C33.9286 63.8425 36.0803 59.7165 36.9233 58.4965C38.1877 56.6553 39.1638 56.1007 39.4743 57.0324C39.6518 57.587 38.8976 60.6926 38.1655 62.5781C37.8328 63.3767 37.5888 64.1087 37.5888 64.2196C37.5888 64.4415 38.6536 64.2862 40.5169 63.776C41.7592 63.4432 41.7592 63.4432 42.2694 62.0679C43.0901 59.8718 44.3546 57.4317 45.02 56.7662C45.7077 56.1007 46.3954 55.9898 46.6172 56.5222ZM57.8196 58.8958C57.8861 59.1841 57.7752 60.5151 57.6199 61.8461C57.4424 63.177 57.3537 64.8851 57.4203 65.6393C57.509 66.7485 57.4646 67.0147 57.1763 67.1256C56.5995 67.3474 55.5125 66.5488 54.958 65.5062C54.6696 64.9517 54.4034 64.4858 54.359 64.4415C54.3147 64.3749 53.7823 64.8629 53.2055 65.4841C51.32 67.5027 49.1904 68.2126 48.0147 67.2365C47.5489 66.8372 47.4602 66.5932 47.4823 65.5062C47.4823 64.7742 47.7042 63.6872 48.0147 62.8443L48.5471 61.4246L48.0369 61.0253C47.4158 60.5151 47.6598 60.0714 48.7024 59.8496C49.7228 59.65 50.4327 59.9162 50.7876 60.626C51.1647 61.3359 51.2312 62.9774 50.8985 63.7982C50.6101 64.5967 50.8541 64.5302 52.296 63.3989C53.6492 62.3563 54.8249 61.0475 55.7344 59.6056C56.3777 58.5852 56.5995 58.3855 57.2428 58.3855C57.5755 58.3855 57.753 58.5408 57.8196 58.8958Z" fill="#dddddd"/>
  <path d="M68.3123 43.7229C67.4471 44.1 65.7612 45.7415 65.7612 46.1852C65.7612 46.5401 66.1605 46.4514 67.669 45.7415C68.7781 45.2313 69.1108 44.9651 69.2218 44.4771C69.3105 44.1443 69.4658 43.7229 69.5989 43.5676C69.9094 43.1683 69.377 43.2348 68.3123 43.7229Z" fill="#dddddd"/>
  <path d="M28.8269 44.3662C28.7603 44.4327 28.716 44.7876 28.716 45.1426C28.716 45.4975 28.2723 47.1168 27.7177 48.7584C26.5864 52.0858 26.5642 52.2633 27.1188 51.9749C27.3184 51.864 28.1392 51.509 28.9156 51.1541C30.668 50.3555 32.3539 48.7806 32.6867 47.627C32.8642 46.9394 32.842 46.651 32.487 45.9855C32.2652 45.5197 31.7994 45.0316 31.4445 44.8542C30.7346 44.5214 29.0043 44.2109 28.8269 44.3662Z" fill="#dddddd"/>
  <path d="M1.47509 55.2356C0.720875 56.0342 0.499046 57.343 0.765241 59.2507C1.18672 62.2232 1.87438 63.532 3.42718 64.3084C4.62506 64.9295 5.44583 64.9517 5.97821 64.375C6.33314 63.9979 6.33314 63.7538 6.11131 61.6686C5.97821 60.4042 5.80075 58.8292 5.7342 58.1638C5.49019 55.8346 4.75816 54.8585 3.11662 54.681C2.20713 54.5701 2.05185 54.6145 1.47509 55.2356Z" fill="#dddddd"/>
  <path d="M84.5899 83.7874V81.9702H83.8936V81.7271H85.5688V81.9702H84.8696V83.7874H84.5899Z" fill="#dddddd"/>
  <path d="M85.8486 83.7874V81.7271H86.2696L86.7699 83.1859C86.816 83.3217 86.8497 83.4234 86.8708 83.4908C86.8948 83.4159 86.9323 83.3058 86.9833 83.1606L87.4893 81.7271H87.8656V83.7874H87.596V82.0629L86.9818 83.7874H86.7295L86.1182 82.0334V83.7874H85.8486Z" fill="#dddddd"/>
</svg>