<svg width="115" height="110" viewBox="0 0 115 110" fill="none" xmlns="http://www.w3.org/2000/svg">
<rect width="115" height="110" rx="55" fill="white"/>
<path d="M57.4566 9.35517C56.2366 9.51045 54.7503 9.75446 54.1292 9.88756C53.02 10.1094 51.1345 10.5087 48.1398 11.1298C46.1434 11.5291 41.8621 12.8379 40.154 13.5477C39.4219 13.8361 38.579 14.1689 38.2684 14.2576C36.5825 14.79 31.3474 17.4297 29.2844 18.7829C25.9569 21.0012 25.4689 21.3561 24.0714 22.554C17.7271 27.9888 13.3793 34.5993 11.2719 41.9862C10.2958 45.4245 10.074 47.177 10.0962 51.6357C10.0962 56.1832 10.318 57.8469 11.0722 58.8451C12.4032 60.5754 13.4236 59.9099 13.4236 57.3145C13.4236 52.4787 14.4884 46.578 16.2187 41.8752C19.413 33.1796 25.8017 25.9923 34.0981 21.7332C37.5364 19.9808 38.5568 19.6037 42.4832 18.5832C43.7254 18.2505 44.524 18.2949 44.4353 18.6942C44.3909 18.916 42.705 19.7811 40.1096 20.8903C32.9445 23.9959 30.7706 25.349 27.1105 28.9426C22.0084 33.9338 19.0803 38.814 17.1725 45.5132C16.263 48.6854 15.9968 52.3234 16.1521 59.2888C16.3296 66.6535 16.5736 68.9605 17.4387 71.6003C18.1929 73.8851 20.1007 77.9002 21.232 79.5639C22.563 81.4717 27.3323 86.2188 29.3066 87.572C29.5728 87.7494 30.571 88.4593 31.5248 89.1248C35.1628 91.6536 38.6455 93.4504 41.485 94.2046C43.5701 94.7814 47.4078 95.5578 48.1398 95.5578C48.8497 95.5578 49.2933 96.1124 48.9162 96.556C48.6057 96.9331 46.6092 96.9997 44.9233 96.6891C39.9987 95.7796 36.3829 94.6039 32.39 92.6518C27.9756 90.4779 23.1619 86.2632 19.2355 81.0946C16.4627 77.4566 15.7528 76.8133 15.1095 77.3678C13.8673 78.3882 15.0873 82.359 17.838 86.241C20.3003 89.7015 25.3358 94.2046 28.8407 96.068C36.1611 99.9722 45.2117 101.569 54.1292 100.549C61.2277 99.706 67.4611 97.8204 73.8719 94.5152C75.2695 93.8053 75.824 93.4504 78.0423 91.9642C78.3972 91.7201 79.1071 91.2321 79.6617 90.855C81.1923 89.8124 85.5401 85.5533 87.0042 83.6456C92.5721 76.3474 95.5668 69.8257 96.6316 62.7271C97.2305 58.7786 96.8534 49.2843 95.9217 44.2045C94.9235 38.9027 94.0362 36.4848 91.6626 32.625C90.0654 30.0518 89.7549 29.6525 87.4922 27.3898C82.5011 22.3987 74.6705 17.9399 69.7459 17.2523C65.4424 16.6533 64.9322 16.5424 64.4664 16.1209C63.4238 15.1449 64.1115 14.5016 66.0414 14.6569C70.9216 15.0562 74.8258 16.2984 79.8613 19.0934C85.3848 22.1325 89.6883 25.4599 92.3059 28.7208C96.1879 33.5345 99.1604 41.6978 99.959 49.6393C100.358 53.5656 100.092 62.2613 99.5153 65.0563C98.2731 70.957 97.4523 73.4858 95.478 77.4566C91.7735 84.8878 86.2943 90.4335 76.6892 96.4229C75.4469 97.2215 74.9811 97.8204 75.1807 98.375C75.2916 98.6634 75.5578 98.7078 76.4895 98.5968C78.73 98.3528 81.7888 96.7148 85.4736 94.0272C87.9409 92.2275 87.9508 92.1376 89.4665 90.855C90.6735 89.8336 96.1435 84.5551 97.7629 82.4699C101.024 78.233 102.798 74.8834 104.129 70.4468C105.815 64.7236 106.525 58.3793 106.303 50.8593C106.215 48.4192 106.059 46.0234 105.948 45.5354C105.837 45.0474 105.549 43.6499 105.283 42.4298C103.797 35.4422 100.225 27.9888 95.833 22.6871C89.9989 15.6551 82.5676 11.6622 71.3209 9.55482C68.9695 9.13334 60.2738 9.00024 57.4566 9.35517ZM67.6829 27.412C68.1266 27.7004 68.415 28.4546 68.6811 30.0296C68.8142 30.8725 69.1248 32.0482 69.3244 32.6694L69.7016 33.7785L74.3378 35.3535C79.1293 36.9728 79.7948 37.239 83.2109 38.9027C85.6954 40.1006 86.2943 40.6774 86.0725 41.6312C85.8951 42.4298 84.8525 43.0953 84.1204 42.8957C83.8764 42.8291 79.7504 42.8735 75.0033 43.0066C66.9287 43.2062 57.5453 43.783 53.9074 44.3154C53.0644 44.4485 51.201 44.6925 49.8035 44.8699C47.1194 45.2027 44.5018 45.5576 39.1557 46.3118C37.3811 46.5558 35.185 46.8664 34.2755 46.9773C33.366 47.1104 31.6801 47.3544 30.5488 47.5541C28.6633 47.8646 28.4192 47.8646 27.9312 47.5319C27.3323 47.1548 27.3545 47.1548 27.5319 46.6667C27.9534 45.5576 35.9614 41.0101 41.5959 38.6587C42.9934 38.0598 44.28 37.5052 44.4353 37.3721C44.5906 37.2612 45.6775 35.7306 46.831 33.9781C48.2729 31.8042 49.1159 30.7616 49.4264 30.6951C49.6926 30.6507 51.7113 30.2292 53.9074 29.7856C56.1035 29.3419 58.2108 28.9426 58.5658 28.8761C58.9429 28.8095 60.54 28.4768 62.115 28.1219C66.0192 27.2567 67.2393 27.1015 67.6829 27.412ZM53.0866 46.6002C53.131 46.822 52.9313 47.3766 52.6429 47.8203C52.3324 48.2639 51.8 49.0847 51.4451 49.6393C50.5134 51.059 49.2046 52.3012 48.65 52.3012C48.0067 52.3012 47.3634 51.6801 47.3634 51.0368C47.3634 49.6393 48.894 47.8424 51.0236 46.7777C52.4655 46.0234 52.9757 46.0013 53.0866 46.6002ZM80.8152 49.9054C81.1923 50.2826 81.1479 51.1477 80.6377 52.6118C80.1941 53.8318 80.1941 53.9205 80.549 54.3198C80.7486 54.5638 81.1479 54.7413 81.4141 54.7413C82.0796 54.7413 82.9669 55.4733 82.7451 55.8283C82.4567 56.2941 80.8152 56.9596 79.9057 56.9596C79.4177 56.9596 78.7078 56.8043 78.2863 56.6047C77.5987 56.2719 77.5099 56.2719 76.8888 56.7156C75.4469 57.7582 73.4505 58.5346 72.3857 58.468C71.8311 58.4458 71.2322 58.5346 71.0547 58.6677C69.6572 59.799 67.7051 60.287 64.3555 60.3092C63.1132 60.3092 61.6492 60.3979 61.0724 60.4867C59.2756 60.7751 58.8763 60.0652 59.9189 58.4237C60.4069 57.6694 63.2463 55.0519 65.3315 53.4325C65.6421 53.1885 65.8417 52.9667 65.7752 52.9001C65.7086 52.8336 64.9766 52.9001 64.1115 53.011C63.2685 53.122 62.2481 53.1663 61.8266 53.0776C60.9615 52.9223 60.2295 52.2568 60.2295 51.6579C60.2295 50.8593 60.8284 50.5266 62.2925 50.5266C63.0467 50.5266 64.3555 50.3713 65.2206 50.1938C66.0636 50.0164 67.3724 49.8611 68.0822 49.8611C69.6794 49.8611 70.2118 50.2382 70.2118 51.3473C70.2118 52.035 69.9012 52.4343 67.5276 54.8522C66.0636 56.3607 64.9322 57.6251 65.0432 57.6916C65.4203 57.8913 68.7921 58.0466 69.5241 57.8913L70.3005 57.7138L70.2339 56.4938C70.1896 55.429 70.2783 55.1406 70.9438 54.1867C71.9198 52.7449 73.9607 51.1033 75.5357 50.4822C76.2011 50.216 77.5099 49.9276 78.4194 49.8611C79.3289 49.7723 80.1941 49.7058 80.3272 49.6836C80.4381 49.6614 80.6599 49.7502 80.8152 49.9054ZM40.7529 50.3269C42.1061 50.8593 43.2818 51.8797 43.7254 52.9001C43.9029 53.2994 44.036 54.2089 44.036 54.9188C44.036 57.492 42.0617 59.9099 38.9561 61.13C36.6047 62.0617 35.7396 62.1948 35.0297 61.7289C34.7192 61.5293 34.4308 61.3962 34.4086 61.4405C34.3643 61.4849 34.1424 62.0617 33.8762 62.7271C30.6819 70.9126 29.7946 72.4432 28.6854 71.445C28.2861 71.0901 28.2418 70.8683 28.3527 69.382C28.5967 66.0768 30.8594 59.6437 33.1886 55.673C33.7875 54.6748 34.2755 53.8096 34.2755 53.7874C34.2755 53.7431 33.9428 53.7653 33.5213 53.8096C32.9224 53.8762 32.7005 53.8096 32.5009 53.4325C32.1681 52.8114 32.3456 52.3012 33.1886 51.5026C34.7414 50.0164 38.4681 49.4174 40.7529 50.3269ZM59.5862 52.9889C60.1629 53.5656 60.0298 54.2533 59.0538 55.6064C58.2774 56.6712 57.9668 57.0261 55.6376 59.4219L54.0405 61.0634L56.5249 61.0856C57.9003 61.0856 60.3182 61.1522 61.8932 61.1965C63.934 61.2631 65.0875 61.1965 65.8417 60.9747C67.7938 60.4201 67.7716 61.618 65.8196 62.5719C64.2889 63.3483 62.6252 63.5923 57.9003 63.7032C55.1274 63.7919 53.1531 63.9472 52.1327 64.1912C48.8718 64.9676 48.2507 64.8567 48.2507 63.5035C48.2507 62.5719 49.1602 61.4627 52.5542 58.2906C55.6598 55.4068 55.8816 55.1184 54.839 55.429C53.8408 55.7174 51.7113 55.673 51.0236 55.3624C50.713 55.2293 50.4025 54.8522 50.3137 54.5638C50.0697 53.5878 50.7796 53.2772 53.619 53.0776C54.9943 52.9889 56.5693 52.8336 57.1239 52.7449C58.7654 52.4787 59.0981 52.5008 59.5862 52.9889ZM48.9162 53.9871C49.4264 55.3181 48.9828 57.2036 47.2747 60.7972C46.587 62.2391 46.0324 63.5701 46.0324 63.7919C46.0324 64.8123 44.8346 65.0342 44.0138 64.1468C43.548 63.6588 43.4814 63.3704 43.4814 61.9951C43.4814 60.5532 43.5701 60.2427 44.3465 58.8451C45.2782 57.1592 47.5187 53.854 47.918 53.5878C48.3395 53.2772 48.7166 53.4103 48.9162 53.9871ZM74.4265 62.7271C74.4265 63.0821 74.249 63.7254 74.0494 64.169C73.8498 64.5905 73.7388 65.012 73.8276 65.0785C73.8941 65.1673 74.8036 65.012 75.824 64.768C78.242 64.1468 80.0831 63.925 80.2828 64.2356C80.5712 64.7014 78.8853 65.5 73.2065 67.6517C72.4079 67.9623 72.297 68.1176 71.8755 69.4042C71.6093 70.1806 71.2322 71.2232 71.0103 71.7112C70.7885 72.1992 70.367 73.3749 70.0787 74.3288C68.903 78.0111 68.3484 78.7432 67.7716 77.3678C67.3724 76.414 67.6164 73.5524 68.2819 70.9348C68.8586 68.7165 68.8142 68.4947 67.816 68.4947C67.1283 68.4947 66.1745 67.5186 66.3741 67.0084C66.6625 66.1655 66.9287 66.0546 68.5259 66.0546H70.1452L71.1878 64.413C72.4744 62.35 73.3839 61.5293 74.005 61.8398C74.2712 61.9951 74.4265 62.3057 74.4265 62.7271ZM54.6172 65.5222C54.6838 65.7218 54.4841 66.9419 54.1514 68.2507C53.4415 71.0679 53.4193 71.4894 53.9739 71.2675C54.1736 71.1788 54.595 71.0457 54.8612 70.9792C55.682 70.8017 55.4158 71.7999 54.4619 72.4211C53.1088 73.3306 52.9535 73.5524 52.7982 74.6393C52.7095 75.2161 52.5098 76.2587 52.3546 76.9242C52.1993 77.5897 51.9996 78.4104 51.9331 78.7432C51.6891 79.7858 50.7574 80.6953 49.8923 80.6953C48.6278 80.6953 48.1842 79.2534 48.6944 76.7023C48.7831 76.1478 48.8497 75.6819 48.8053 75.6376C48.7831 75.6154 47.7627 75.9038 46.5648 76.3252L44.3687 77.0573L43.6811 79.8301C42.9047 82.9357 42.5275 83.7787 41.6846 84.4442C40.9304 85.0431 40.2205 85.0431 39.6881 84.4442C39.1557 83.8452 39.1557 81.3164 39.6881 79.7414C40.2871 77.989 40.1983 77.6784 39.1114 77.5231C37.9135 77.3678 37.0262 76.4805 37.3811 75.815C37.6917 75.2161 38.579 74.7946 40.2205 74.4619C41.4184 74.2179 41.6402 74.0848 41.7511 73.5967C41.9286 72.8425 44.0803 68.7165 44.9233 67.4965C46.1877 65.6553 47.1638 65.1007 47.4743 66.0324C47.6518 66.587 46.8976 69.6926 46.1655 71.5781C45.8328 72.3767 45.5888 73.1087 45.5888 73.2196C45.5888 73.4415 46.6536 73.2862 48.5169 72.776C49.7592 72.4432 49.7592 72.4432 50.2694 71.0679C51.0901 68.8718 52.3546 66.4317 53.02 65.7662C53.7077 65.1007 54.3954 64.9898 54.6172 65.5222ZM65.8196 67.8958C65.8861 68.1841 65.7752 69.5151 65.6199 70.8461C65.4424 72.177 65.3537 73.8851 65.4203 74.6393C65.509 75.7485 65.4646 76.0147 65.1763 76.1256C64.5995 76.3474 63.5125 75.5488 62.958 74.5062C62.6696 73.9517 62.4034 73.4858 62.359 73.4415C62.3147 73.3749 61.7823 73.8629 61.2055 74.4841C59.32 76.5027 57.1904 77.2126 56.0147 76.2365C55.5489 75.8372 55.4602 75.5932 55.4823 74.5062C55.4823 73.7742 55.7042 72.6872 56.0147 71.8443L56.5471 70.4246L56.0369 70.0253C55.4158 69.5151 55.6598 69.0714 56.7024 68.8496C57.7228 68.65 58.4327 68.9162 58.7876 69.626C59.1647 70.3359 59.2312 71.9774 58.8985 72.7982C58.6101 73.5967 58.8541 73.5302 60.296 72.3989C61.6492 71.3563 62.8249 70.0475 63.7344 68.6056C64.3777 67.5852 64.5995 67.3855 65.2428 67.3855C65.5755 67.3855 65.753 67.5408 65.8196 67.8958Z" fill="#EE3A43"/>
<path d="M76.3123 52.7229C75.4471 53.1 73.7612 54.7415 73.7612 55.1852C73.7612 55.5401 74.1605 55.4514 75.669 54.7415C76.7781 54.2313 77.1108 53.9651 77.2218 53.4771C77.3105 53.1443 77.4658 52.7229 77.5989 52.5676C77.9094 52.1683 77.377 52.2348 76.3123 52.7229Z" fill="#EE3A43"/>
<path d="M36.8266 53.3662C36.7601 53.4327 36.7157 53.7876 36.7157 54.1426C36.7157 54.4975 36.2721 56.1168 35.7175 57.7584C34.5862 61.0858 34.564 61.2633 35.1185 60.9749C35.3182 60.864 36.139 60.509 36.9154 60.1541C38.6678 59.3555 40.3537 57.7806 40.6864 56.627C40.8639 55.9394 40.8417 55.651 40.4868 54.9855C40.265 54.5197 39.7991 54.0316 39.4442 53.8542C38.7344 53.5214 37.0041 53.2109 36.8266 53.3662Z" fill="#EE3A43"/>
<path d="M9.47509 64.2356C8.72087 65.0342 8.49905 66.343 8.76524 68.2507C9.18672 71.2232 9.87438 72.532 11.4272 73.3084C12.6251 73.9295 13.4458 73.9517 13.9782 73.375C14.3331 72.9979 14.3331 72.7538 14.1113 70.6686C13.9782 69.4042 13.8008 67.8292 13.7342 67.1638C13.4902 64.8346 12.7582 63.8585 11.1166 63.681C10.2071 63.5701 10.0518 63.6145 9.47509 64.2356Z" fill="#EE3A43"/>
<path d="M92.5901 92.7874V90.9702H91.8938V90.7271H93.5691V90.9702H92.8698V92.7874H92.5901Z" fill="#EE3A43"/>
<path d="M93.8489 92.7874V90.7271H94.2699L94.7701 92.1859C94.8163 92.3217 94.8499 92.4234 94.8711 92.4908C94.8951 92.4159 94.9326 92.3058 94.9835 92.1606L95.4895 90.7271H95.8658V92.7874H95.5962V91.0629L94.9821 92.7874H94.7298L94.1185 91.0334V92.7874H93.8489Z" fill="#EE3A43"/>
</svg>
